<svg xmlns="http://www.w3.org/2000/svg" xmlns:xlink="http://www.w3.org/1999/xlink" width="1280" zoomAndPan="magnify" viewBox="0 0 960 540.000001" height="720" preserveAspectRatio="xMidYMid meet" version="1.2"><defs><clipPath id="a6568f10d2"><path d="M 0.886719 2.265625 L 27 2.265625 L 27 32.957031 L 0.886719 32.957031 Z M 0.886719 2.265625 "/></clipPath><clipPath id="d00dda891f"><path d="M 12 2.265625 L 27.730469 2.265625 L 27.730469 11 L 12 11 Z M 12 2.265625 "/></clipPath></defs><g id="9950cfdbdc"><g clip-rule="nonzero" clip-path="url(#a6568f10d2)"><path style=" stroke:none;fill-rule:nonzero;fill:#00bf63;fill-opacity:1;" d="M 4.761719 19.367188 C 4.671875 19.390625 4.632812 19.394531 4.601562 19.414062 C 3.429688 20.042969 2.609375 20.964844 2.230469 22.253906 C 2.179688 22.425781 2.148438 22.605469 2.113281 22.777344 C 2.097656 22.839844 2.09375 22.90625 2.074219 22.96875 C 2.046875 23.066406 1.929688 23.140625 1.839844 23.125 C 1.746094 23.105469 1.65625 23.011719 1.652344 22.910156 C 1.648438 22.855469 1.644531 22.804688 1.65625 22.753906 C 1.722656 22.5 1.695312 22.246094 1.695312 21.992188 C 1.703125 19.421875 2.699219 17.320312 4.699219 15.699219 C 4.816406 15.601562 4.941406 15.511719 5.066406 15.414062 C 5.097656 15.101562 5.132812 14.796875 5.164062 14.492188 C 5.246094 13.730469 5.3125 12.960938 5.40625 12.199219 C 5.800781 9.050781 7.28125 6.488281 9.652344 4.417969 C 10.359375 3.804688 11.167969 3.371094 12.054688 3.085938 C 12.960938 2.796875 13.871094 2.539062 14.8125 2.40625 C 15.332031 2.335938 15.855469 2.292969 16.382812 2.285156 C 17.441406 2.265625 18.484375 2.375 19.511719 2.597656 C 19.597656 2.617188 19.6875 2.644531 19.761719 2.683594 C 19.835938 2.722656 19.875 2.804688 19.851562 2.878906 C 19.828125 2.945312 19.773438 3.027344 19.714844 3.046875 C 19.59375 3.085938 19.460938 3.09375 19.335938 3.105469 C 18.992188 3.140625 18.644531 3.160156 18.304688 3.207031 C 16.777344 3.417969 15.464844 4.058594 14.433594 5.222656 C 13.179688 6.636719 12.1875 8.214844 11.5625 10.003906 C 11.203125 11.03125 10.898438 12.078125 10.570312 13.117188 C 10.554688 13.164062 10.554688 13.214844 10.546875 13.285156 C 10.632812 13.289062 10.703125 13.304688 10.777344 13.296875 C 11.296875 13.238281 11.820312 13.152344 12.339844 13.113281 C 12.980469 13.0625 13.621094 13.03125 14.261719 13.019531 C 15.03125 13.003906 15.800781 13.007812 16.570312 13.027344 C 17.597656 13.050781 18.621094 13.046875 19.644531 13 C 20.542969 12.957031 21.429688 12.832031 22.296875 12.585938 C 23.34375 12.285156 24.296875 11.792969 25.15625 11.132812 C 25.277344 11.035156 25.398438 10.941406 25.527344 10.851562 C 25.589844 10.8125 25.664062 10.777344 25.734375 10.765625 C 25.890625 10.734375 26.015625 10.84375 26.019531 10.996094 C 26.019531 11.046875 26.015625 11.101562 26 11.148438 C 25.984375 11.207031 25.957031 11.269531 25.929688 11.324219 C 25.324219 12.558594 24.652344 13.75 23.792969 14.832031 C 22.582031 16.355469 21.003906 17.25 19.105469 17.609375 C 18.003906 17.820312 16.890625 17.871094 15.777344 17.894531 C 15.226562 17.90625 14.675781 17.886719 14.125 17.890625 C 13.160156 17.898438 12.199219 17.90625 11.238281 17.925781 C 10.839844 17.9375 10.445312 17.976562 10.050781 18.007812 C 9.976562 18.015625 9.902344 18.042969 9.8125 18.0625 C 9.800781 18.15625 9.785156 18.242188 9.785156 18.332031 C 9.777344 18.753906 9.777344 19.179688 9.777344 19.597656 C 9.777344 20.792969 9.742188 21.984375 9.621094 23.171875 C 9.476562 24.601562 9.21875 26.011719 8.703125 27.363281 C 8.585938 27.675781 8.453125 27.984375 8.308594 28.28125 C 7.5 29.945312 6.210938 31.074219 4.464844 31.671875 C 3.53125 31.996094 2.574219 32.230469 1.585938 32.3125 C 1.304688 32.335938 1.027344 32.398438 0.75 32.425781 C 0.558594 32.445312 0.367188 32.449219 0.175781 32.4375 C 0.128906 32.4375 0.0625 32.371094 0.0507812 32.316406 C 0.0351562 32.265625 0.0546875 32.183594 0.09375 32.148438 C 0.164062 32.078125 0.257812 32.03125 0.347656 31.980469 C 1.300781 31.425781 2.109375 30.703125 2.792969 29.839844 C 3.421875 29.054688 3.796875 28.148438 4.011719 27.171875 C 4.210938 26.269531 4.34375 25.355469 4.40625 24.433594 C 4.464844 23.605469 4.492188 22.769531 4.539062 21.9375 C 4.546875 21.835938 4.535156 21.71875 4.585938 21.640625 C 4.707031 21.453125 4.707031 21.253906 4.714844 21.046875 C 4.734375 20.585938 4.753906 20.125 4.769531 19.664062 C 4.777344 19.578125 4.765625 19.492188 4.761719 19.367188 Z M 4.761719 19.367188 "/></g><g clip-rule="nonzero" clip-path="url(#d00dda891f)"><path style=" stroke:none;fill-rule:nonzero;fill:#00bf63;fill-opacity:1;" d="M 20.980469 9.152344 C 20.433594 9.160156 19.824219 9.085938 19.214844 9.015625 C 18.640625 8.949219 18.066406 8.882812 17.492188 8.855469 C 16.511719 8.808594 15.550781 8.929688 14.625 9.277344 C 13.992188 9.515625 13.421875 9.851562 12.945312 10.332031 C 12.898438 10.375 12.855469 10.421875 12.804688 10.460938 C 12.71875 10.523438 12.625 10.527344 12.554688 10.472656 C 12.480469 10.417969 12.441406 10.308594 12.488281 10.230469 C 12.75 9.800781 12.832031 9.296875 13.046875 8.84375 C 13.667969 7.523438 14.523438 6.390625 15.730469 5.550781 C 16.578125 4.960938 17.523438 4.621094 18.535156 4.460938 C 19.242188 4.347656 19.957031 4.296875 20.679688 4.296875 C 21.355469 4.300781 22.035156 4.296875 22.714844 4.292969 C 23.359375 4.289062 23.996094 4.25 24.632812 4.160156 C 25.5 4.03125 26.285156 3.71875 26.976562 3.175781 C 27.066406 3.105469 27.160156 3.039062 27.257812 2.972656 C 27.359375 2.902344 27.472656 2.882812 27.582031 2.945312 C 27.714844 3.019531 27.726562 3.148438 27.710938 3.28125 C 27.703125 3.332031 27.691406 3.382812 27.675781 3.433594 C 27.226562 4.835938 26.601562 6.148438 25.609375 7.257812 C 24.78125 8.183594 23.765625 8.785156 22.539062 9.035156 C 22.050781 9.136719 21.550781 9.160156 20.980469 9.152344 Z M 20.980469 9.152344 "/></g><g style="fill:#000000;fill-opacity:1;"><g transform="translate(26.131915, 26.875886)"><path style="stroke:none" d="M 9.625 -12.609375 C 9.9375 -12.515625 10.191406 -12.347656 10.390625 -12.109375 C 10.597656 -11.878906 10.703125 -11.503906 10.703125 -10.984375 C 10.703125 -10.472656 10.546875 -9.910156 10.234375 -9.296875 C 9.929688 -8.679688 9.488281 -8.375 8.90625 -8.375 C 8.613281 -8.375 8.332031 -8.4375 8.0625 -8.5625 C 7.800781 -8.695312 7.453125 -8.765625 7.015625 -8.765625 C 6.578125 -8.765625 6.171875 -8.609375 5.796875 -8.296875 C 5.421875 -7.992188 5.234375 -7.625 5.234375 -7.1875 L 5.234375 -2.109375 C 5.234375 -1.734375 5.21875 -1.453125 5.1875 -1.265625 C 5.164062 -1.085938 5.09375 -0.875 4.96875 -0.625 C 4.71875 -0.207031 4.085938 0 3.078125 0 C 2.296875 0 1.738281 -0.132812 1.40625 -0.40625 C 1.144531 -0.632812 1 -0.984375 0.96875 -1.453125 C 0.96875 -1.609375 0.96875 -1.84375 0.96875 -2.15625 L 0.96875 -10.65625 C 0.96875 -11.019531 0.976562 -11.296875 1 -11.484375 C 1.03125 -11.671875 1.097656 -11.875 1.203125 -12.09375 C 1.429688 -12.53125 2.0625 -12.75 3.09375 -12.75 C 4.0625 -12.75 4.664062 -12.566406 4.90625 -12.203125 C 5.082031 -11.941406 5.171875 -11.675781 5.171875 -11.40625 C 5.253906 -11.507812 5.375 -11.640625 5.53125 -11.796875 C 5.6875 -11.960938 6.015625 -12.179688 6.515625 -12.453125 C 7.015625 -12.734375 7.453125 -12.875 7.828125 -12.875 C 8.210938 -12.875 8.53125 -12.851562 8.78125 -12.8125 C 9.039062 -12.769531 9.320312 -12.703125 9.625 -12.609375 Z M 9.625 -12.609375 "/></g></g><g style="fill:#000000;fill-opacity:1;"><g transform="translate(36.465596, 26.875886)"><path style="stroke:none" d="M 13.265625 -7.890625 C 13.265625 -6.898438 13.015625 -6.164062 12.515625 -5.6875 C 12.023438 -5.21875 11.484375 -4.984375 10.890625 -4.984375 L 5.15625 -4.984375 C 5.15625 -4.535156 5.421875 -4.15625 5.953125 -3.84375 C 6.484375 -3.539062 7.015625 -3.390625 7.546875 -3.390625 C 8.484375 -3.390625 9.21875 -3.484375 9.75 -3.671875 L 10.015625 -3.78125 C 10.398438 -3.957031 10.722656 -4.046875 10.984375 -4.046875 C 11.503906 -4.046875 11.945312 -3.679688 12.3125 -2.953125 C 12.53125 -2.515625 12.640625 -2.144531 12.640625 -1.84375 C 12.640625 -0.40625 10.921875 0.3125 7.484375 0.3125 C 6.285156 0.3125 5.222656 0.109375 4.296875 -0.296875 C 3.367188 -0.710938 2.644531 -1.257812 2.125 -1.9375 C 1.113281 -3.238281 0.609375 -4.695312 0.609375 -6.3125 C 0.609375 -8.34375 1.265625 -9.96875 2.578125 -11.1875 C 3.890625 -12.40625 5.53125 -13.015625 7.5 -13.015625 C 9.738281 -13.015625 11.382812 -12.226562 12.4375 -10.65625 C 12.988281 -9.8125 13.265625 -8.890625 13.265625 -7.890625 Z M 8.15625 -7.1875 C 8.769531 -7.1875 9.078125 -7.445312 9.078125 -7.96875 C 9.078125 -8.332031 8.9375 -8.628906 8.65625 -8.859375 C 8.375 -9.085938 7.96875 -9.203125 7.4375 -9.203125 C 6.914062 -9.203125 6.394531 -8.988281 5.875 -8.5625 C 5.363281 -8.132812 5.109375 -7.675781 5.109375 -7.1875 Z M 8.15625 -7.1875 "/></g></g><g style="fill:#000000;fill-opacity:1;"><g transform="translate(50.332928, 26.875886)"><path style="stroke:none" d="M 1.0625 -1.140625 C 0.757812 -1.328125 0.609375 -1.628906 0.609375 -2.046875 C 0.609375 -2.472656 0.914062 -3.113281 1.53125 -3.96875 C 1.707031 -4.238281 1.992188 -4.375 2.390625 -4.375 C 2.785156 -4.375 3.320312 -4.175781 4 -3.78125 C 4.675781 -3.382812 5.285156 -3.1875 5.828125 -3.1875 C 6.816406 -3.1875 7.3125 -3.382812 7.3125 -3.78125 C 7.3125 -4.082031 6.769531 -4.304688 5.6875 -4.453125 C 4.664062 -4.597656 3.65625 -4.976562 2.65625 -5.59375 C 2.1875 -5.882812 1.800781 -6.335938 1.5 -6.953125 C 1.195312 -7.578125 1.046875 -8.316406 1.046875 -9.171875 C 1.046875 -11.722656 2.796875 -13 6.296875 -13 C 7.441406 -13 8.617188 -12.722656 9.828125 -12.171875 C 10.390625 -11.910156 10.671875 -11.585938 10.671875 -11.203125 C 10.671875 -10.816406 10.492188 -10.34375 10.140625 -9.78125 C 9.785156 -9.21875 9.421875 -8.9375 9.046875 -8.9375 C 8.859375 -8.9375 8.5 -9.054688 7.96875 -9.296875 C 7.445312 -9.535156 6.878906 -9.65625 6.265625 -9.65625 C 5.316406 -9.65625 4.84375 -9.476562 4.84375 -9.125 C 4.84375 -8.644531 5.390625 -8.332031 6.484375 -8.1875 C 7.546875 -8.070312 8.578125 -7.765625 9.578125 -7.265625 C 10.046875 -7.035156 10.4375 -6.640625 10.75 -6.078125 C 11.070312 -5.523438 11.234375 -4.828125 11.234375 -3.984375 C 11.234375 -3.148438 11.070312 -2.4375 10.75 -1.84375 C 10.4375 -1.257812 10 -0.820312 9.4375 -0.53125 C 8.40625 -0.03125 7.109375 0.21875 5.546875 0.21875 C 3.992188 0.21875 2.5 -0.234375 1.0625 -1.140625 Z M 1.0625 -1.140625 "/></g></g><g style="fill:#000000;fill-opacity:1;"><g transform="translate(62.167354, 26.875886)"><path style="stroke:none" d="M 8.03125 -12.703125 C 9.644531 -12.703125 10.988281 -12.085938 12.0625 -10.859375 C 13.132812 -9.640625 13.671875 -8.140625 13.671875 -6.359375 L 13.671875 -2.109375 C 13.671875 -1.734375 13.660156 -1.453125 13.640625 -1.265625 C 13.617188 -1.085938 13.539062 -0.875 13.40625 -0.625 C 13.195312 -0.207031 12.578125 0 11.546875 0 C 10.554688 0 9.941406 -0.207031 9.703125 -0.625 C 9.578125 -0.875 9.5 -1.09375 9.46875 -1.28125 C 9.445312 -1.476562 9.4375 -1.769531 9.4375 -2.15625 L 9.4375 -6.390625 C 9.4375 -7.046875 9.25 -7.5625 8.875 -7.9375 C 8.507812 -8.3125 8.039062 -8.5 7.46875 -8.5 C 6.894531 -8.5 6.390625 -8.320312 5.953125 -7.96875 C 5.515625 -7.625 5.265625 -7.234375 5.203125 -6.796875 L 5.203125 -2.109375 C 5.203125 -1.734375 5.1875 -1.453125 5.15625 -1.265625 C 5.132812 -1.085938 5.0625 -0.875 4.9375 -0.625 C 4.726562 -0.207031 4.109375 0 3.078125 0 C 2.054688 0 1.429688 -0.21875 1.203125 -0.65625 C 1.097656 -0.894531 1.03125 -1.101562 1 -1.28125 C 0.976562 -1.457031 0.96875 -1.738281 0.96875 -2.125 L 0.96875 -16.609375 C 0.96875 -16.972656 0.976562 -17.25 1 -17.4375 C 1.03125 -17.625 1.097656 -17.832031 1.203125 -18.0625 C 1.429688 -18.488281 2.0625 -18.703125 3.09375 -18.703125 C 4.113281 -18.703125 4.726562 -18.488281 4.9375 -18.0625 C 5.0625 -17.8125 5.132812 -17.59375 5.15625 -17.40625 C 5.1875 -17.226562 5.203125 -16.953125 5.203125 -16.578125 L 5.203125 -11.234375 C 6.003906 -12.210938 6.945312 -12.703125 8.03125 -12.703125 Z M 8.03125 -12.703125 "/></g></g><g style="fill:#000000;fill-opacity:1;"><g transform="translate(76.809127, 26.875886)"><path style="stroke:none" d="M 8.421875 -12.734375 C 9.535156 -12.734375 10.191406 -12.425781 10.390625 -11.8125 C 10.484375 -11.5 10.53125 -11.09375 10.53125 -10.59375 C 10.53125 -10.09375 10.476562 -9.691406 10.375 -9.390625 C 10.269531 -9.097656 10.101562 -8.890625 9.875 -8.765625 C 9.53125 -8.566406 9.039062 -8.46875 8.40625 -8.46875 L 6.84375 -8.5625 L 6.84375 -2.078125 C 6.84375 -1.460938 6.765625 -1.003906 6.609375 -0.703125 C 6.460938 -0.410156 6.234375 -0.210938 5.921875 -0.109375 C 5.609375 -0.015625 5.195312 0.03125 4.6875 0.03125 C 4.1875 0.03125 3.785156 -0.0195312 3.484375 -0.125 C 3.191406 -0.238281 2.976562 -0.410156 2.84375 -0.640625 C 2.71875 -0.878906 2.644531 -1.09375 2.625 -1.28125 C 2.601562 -1.476562 2.59375 -1.757812 2.59375 -2.125 L 2.59375 -8.546875 L 1.71875 -8.546875 C 1.300781 -8.578125 1.003906 -8.671875 0.828125 -8.828125 C 0.515625 -9.140625 0.359375 -9.726562 0.359375 -10.59375 C 0.359375 -11.914062 0.835938 -12.578125 1.796875 -12.578125 L 2.59375 -12.578125 L 2.59375 -13.875 C 2.59375 -15.113281 3.035156 -16.234375 3.921875 -17.234375 C 4.804688 -18.242188 6.085938 -18.75 7.765625 -18.75 C 8.140625 -18.75 8.414062 -18.738281 8.59375 -18.71875 C 8.78125 -18.695312 9 -18.617188 9.25 -18.484375 C 9.6875 -18.273438 9.90625 -17.65625 9.90625 -16.625 C 9.90625 -15.851562 9.765625 -15.296875 9.484375 -14.953125 C 9.265625 -14.691406 8.910156 -14.546875 8.421875 -14.515625 C 8.273438 -14.515625 8.050781 -14.515625 7.75 -14.515625 C 7.144531 -14.515625 6.84375 -14.316406 6.84375 -13.921875 L 6.84375 -12.578125 Z M 8.421875 -12.734375 "/></g></g><g style="fill:#000000;fill-opacity:1;"><g transform="translate(87.215492, 26.875886)"><path style="stroke:none" d="M 9.25 -11.40625 C 9.34375 -12.300781 9.976562 -12.75 11.15625 -12.75 C 11.78125 -12.75 12.242188 -12.703125 12.546875 -12.609375 C 12.859375 -12.515625 13.078125 -12.34375 13.203125 -12.09375 C 13.328125 -11.851562 13.398438 -11.640625 13.421875 -11.453125 C 13.441406 -11.273438 13.453125 -11 13.453125 -10.625 L 13.453125 -2.15625 C 13.453125 -1.78125 13.441406 -1.5 13.421875 -1.3125 C 13.398438 -1.132812 13.332031 -0.921875 13.21875 -0.671875 C 12.988281 -0.253906 12.429688 -0.046875 11.546875 -0.046875 C 10.671875 -0.046875 10.082031 -0.15625 9.78125 -0.375 C 9.488281 -0.59375 9.316406 -0.910156 9.265625 -1.328125 C 8.671875 -0.472656 7.675781 -0.046875 6.28125 -0.046875 C 4.882812 -0.046875 3.585938 -0.679688 2.390625 -1.953125 C 1.203125 -3.234375 0.609375 -4.71875 0.609375 -6.40625 C 0.609375 -8.09375 1.207031 -9.566406 2.40625 -10.828125 C 3.613281 -12.097656 4.929688 -12.734375 6.359375 -12.734375 C 6.910156 -12.734375 7.410156 -12.632812 7.859375 -12.4375 C 8.316406 -12.25 8.632812 -12.066406 8.8125 -11.890625 C 8.988281 -11.722656 9.132812 -11.5625 9.25 -11.40625 Z M 4.84375 -6.359375 C 4.84375 -5.828125 5.050781 -5.347656 5.46875 -4.921875 C 5.882812 -4.492188 6.390625 -4.28125 6.984375 -4.28125 C 7.585938 -4.28125 8.085938 -4.5 8.484375 -4.9375 C 8.878906 -5.375 9.078125 -5.851562 9.078125 -6.375 C 9.078125 -6.90625 8.882812 -7.394531 8.5 -7.84375 C 8.125 -8.289062 7.617188 -8.515625 6.984375 -8.515625 C 6.347656 -8.515625 5.832031 -8.289062 5.4375 -7.84375 C 5.039062 -7.394531 4.84375 -6.898438 4.84375 -6.359375 Z M 4.84375 -6.359375 "/></g></g><g style="fill:#000000;fill-opacity:1;"><g transform="translate(101.639452, 26.875886)"><path style="stroke:none" d="M 9.625 -12.609375 C 9.9375 -12.515625 10.191406 -12.347656 10.390625 -12.109375 C 10.597656 -11.878906 10.703125 -11.503906 10.703125 -10.984375 C 10.703125 -10.472656 10.546875 -9.910156 10.234375 -9.296875 C 9.929688 -8.679688 9.488281 -8.375 8.90625 -8.375 C 8.613281 -8.375 8.332031 -8.4375 8.0625 -8.5625 C 7.800781 -8.695312 7.453125 -8.765625 7.015625 -8.765625 C 6.578125 -8.765625 6.171875 -8.609375 5.796875 -8.296875 C 5.421875 -7.992188 5.234375 -7.625 5.234375 -7.1875 L 5.234375 -2.109375 C 5.234375 -1.734375 5.21875 -1.453125 5.1875 -1.265625 C 5.164062 -1.085938 5.09375 -0.875 4.96875 -0.625 C 4.71875 -0.207031 4.085938 0 3.078125 0 C 2.296875 0 1.738281 -0.132812 1.40625 -0.40625 C 1.144531 -0.632812 1 -0.984375 0.96875 -1.453125 C 0.96875 -1.609375 0.96875 -1.84375 0.96875 -2.15625 L 0.96875 -10.65625 C 0.96875 -11.019531 0.976562 -11.296875 1 -11.484375 C 1.03125 -11.671875 1.097656 -11.875 1.203125 -12.09375 C 1.429688 -12.53125 2.0625 -12.75 3.09375 -12.75 C 4.0625 -12.75 4.664062 -12.566406 4.90625 -12.203125 C 5.082031 -11.941406 5.171875 -11.675781 5.171875 -11.40625 C 5.253906 -11.507812 5.375 -11.640625 5.53125 -11.796875 C 5.6875 -11.960938 6.015625 -12.179688 6.515625 -12.453125 C 7.015625 -12.734375 7.453125 -12.875 7.828125 -12.875 C 8.210938 -12.875 8.53125 -12.851562 8.78125 -12.8125 C 9.039062 -12.769531 9.320312 -12.703125 9.625 -12.609375 Z M 9.625 -12.609375 "/></g></g><g style="fill:#000000;fill-opacity:1;"><g transform="translate(112.699438, 26.875886)"><path style="stroke:none" d="M 5.125 -11.0625 C 5.882812 -12.207031 6.796875 -12.78125 7.859375 -12.78125 C 9.503906 -12.78125 10.734375 -12.078125 11.546875 -10.671875 C 11.722656 -10.910156 11.9375 -11.160156 12.1875 -11.421875 C 12.4375 -11.691406 12.832031 -11.984375 13.375 -12.296875 C 13.925781 -12.617188 14.492188 -12.78125 15.078125 -12.78125 C 16.367188 -12.78125 17.445312 -12.28125 18.3125 -11.28125 C 19.1875 -10.289062 19.625 -8.648438 19.625 -6.359375 L 19.625 -2.125 C 19.625 -1.757812 19.613281 -1.484375 19.59375 -1.296875 C 19.570312 -1.109375 19.492188 -0.894531 19.359375 -0.65625 C 19.148438 -0.21875 18.53125 0 17.5 0 C 16.476562 0 15.859375 -0.222656 15.640625 -0.671875 C 15.523438 -0.921875 15.453125 -1.132812 15.421875 -1.3125 C 15.398438 -1.5 15.390625 -1.78125 15.390625 -2.15625 L 15.390625 -6.390625 C 15.390625 -7.796875 14.890625 -8.5 13.890625 -8.5 C 13.328125 -8.5 12.941406 -8.3125 12.734375 -7.9375 C 12.535156 -7.5625 12.4375 -7.035156 12.4375 -6.359375 L 12.4375 -2.125 C 12.4375 -1.738281 12.425781 -1.457031 12.40625 -1.28125 C 12.382812 -1.101562 12.304688 -0.894531 12.171875 -0.65625 C 11.941406 -0.21875 11.3125 0 10.28125 0 C 9.269531 0 8.648438 -0.222656 8.421875 -0.671875 C 8.304688 -0.921875 8.238281 -1.132812 8.21875 -1.3125 C 8.195312 -1.5 8.1875 -1.78125 8.1875 -2.15625 L 8.1875 -6.390625 C 8.1875 -7.796875 7.6875 -8.5 6.6875 -8.5 C 5.71875 -8.5 5.234375 -7.796875 5.234375 -6.390625 L 5.234375 -2.109375 C 5.234375 -1.734375 5.21875 -1.453125 5.1875 -1.265625 C 5.164062 -1.085938 5.09375 -0.875 4.96875 -0.625 C 4.71875 -0.207031 4.085938 0 3.078125 0 C 2.054688 0 1.429688 -0.21875 1.203125 -0.65625 C 1.097656 -0.894531 1.03125 -1.101562 1 -1.28125 C 0.976562 -1.457031 0.96875 -1.738281 0.96875 -2.125 L 0.96875 -10.65625 C 0.96875 -11.019531 0.976562 -11.296875 1 -11.484375 C 1.03125 -11.671875 1.109375 -11.875 1.234375 -12.09375 C 1.472656 -12.53125 2.046875 -12.75 2.953125 -12.75 C 3.859375 -12.75 4.445312 -12.601562 4.71875 -12.3125 C 4.988281 -12.03125 5.125 -11.613281 5.125 -11.0625 Z M 5.125 -11.0625 "/></g></g></g></svg>