<?xml version="1.0" encoding="UTF-8" standalone="no" ?>
<!DOCTYPE svg PUBLIC "-//W3C//DTD SVG 1.1//EN" "http://www.w3.org/Graphics/SVG/1.1/DTD/svg11.dtd">
<svg xmlns="http://www.w3.org/2000/svg" xmlns:xlink="http://www.w3.org/1999/xlink" version="1.1" width="1080" height="1080" viewBox="0 0 1080 1080" xml:space="preserve">
<desc>Created with Fabric.js 5.2.4</desc>
<defs>
</defs>
<g transform="matrix(1 0 0 1 540 540)" id="24530563-6f30-4a7a-9d2b-9eb1ba417101"  >
<rect style="stroke: none; stroke-width: 1; stroke-dasharray: none; stroke-linecap: butt; stroke-dashoffset: 0; stroke-linejoin: miter; stroke-miterlimit: 4; fill: rgb(255,255,255); fill-rule: nonzero; opacity: 1; visibility: hidden;" vector-effect="non-scaling-stroke"  x="-540" y="-540" rx="0" ry="0" width="1080" height="1080" />
</g>
<g transform="matrix(1 0 0 1 540 540)" id="21206152-f2f7-4168-90f6-9accb799149f"  >
</g>
<g transform="matrix(4.75 0 0 4.75 457.52 540)" clip-path="url(#CLIPPATH_3)"  >
<clipPath id="CLIPPATH_3" >
	<path transform="matrix(1 0 0 1 0.17 0.02) translate(-118.72, -131.35)" id="6" d="M 25.4375 23.179688 L 212 23.179688 L 212 239.527344 L 25.4375 239.527344 Z M 25.4375 23.179688" stroke-linecap="round" />
</clipPath>
<path style="stroke: none; stroke-width: 1; stroke-dasharray: none; stroke-linecap: butt; stroke-dashoffset: 0; stroke-linejoin: miter; stroke-miterlimit: 4; fill: rgb(0,191,99); fill-rule: nonzero; opacity: 1;" vector-effect="non-scaling-stroke"  transform=" translate(-118.55, -131.34)" d="M 59.296875 145.703125 C 58.664062 145.867188 58.378906 145.894531 58.160156 146.015625 C 49.777344 150.523438 43.886719 157.132812 41.164062 166.371094 C 40.796875 167.605469 40.59375 168.878906 40.324219 170.125 C 40.226562 170.570312 40.203125 171.042969 40.066406 171.476562 C 39.847656 172.195312 39.007812 172.722656 38.371094 172.601562 C 37.695312 172.480469 37.074219 171.804688 37.019531 171.058594 C 36.992188 170.691406 36.976562 170.3125 37.074219 169.960938 C 37.546875 168.144531 37.34375 166.316406 37.34375 164.488281 C 37.398438 146.082031 44.523438 131.019531 58.851562 119.414062 C 59.707031 118.722656 60.585938 118.074219 61.480469 117.382812 C 61.722656 115.148438 61.953125 112.953125 62.183594 110.773438 C 62.765625 105.300781 63.238281 99.800781 63.929688 94.34375 C 66.761719 71.792969 77.351562 53.441406 94.351562 38.609375 C 99.402344 34.207031 105.1875 31.089844 111.550781 29.046875 C 118.039062 26.972656 124.570312 25.144531 131.3125 24.199219 C 135.039062 23.683594 138.789062 23.386719 142.570312 23.316406 C 150.140625 23.183594 157.601562 23.953125 164.984375 25.566406 C 165.59375 25.699219 166.21875 25.902344 166.773438 26.1875 C 167.285156 26.460938 167.585938 27.042969 167.394531 27.582031 C 167.234375 28.042969 166.839844 28.640625 166.421875 28.777344 C 165.566406 29.058594 164.617188 29.113281 163.710938 29.207031 C 161.246094 29.453125 158.769531 29.589844 156.316406 29.914062 C 145.371094 31.429688 135.972656 36.035156 128.589844 44.351562 C 119.613281 54.484375 112.5 65.792969 108.015625 78.617188 C 105.445312 85.972656 103.261719 93.476562 100.90625 100.914062 C 100.796875 101.25 100.8125 101.628906 100.757812 102.132812 C 101.355469 102.160156 101.882812 102.265625 102.398438 102.210938 C 106.136719 101.777344 109.859375 101.183594 113.597656 100.886719 C 118.175781 100.519531 122.765625 100.289062 127.359375 100.207031 C 132.871094 100.097656 138.382812 100.125 143.894531 100.261719 C 151.25 100.4375 158.589844 100.425781 165.933594 100.074219 C 172.367188 99.761719 178.71875 98.878906 184.921875 97.105469 C 192.425781 94.964844 199.238281 91.445312 205.414062 86.691406 C 206.28125 86.011719 207.148438 85.324219 208.054688 84.699219 C 208.503906 84.402344 209.03125 84.15625 209.546875 84.0625 C 210.65625 83.847656 211.5625 84.617188 211.589844 85.730469 C 211.589844 86.09375 211.5625 86.472656 211.453125 86.8125 C 211.332031 87.246094 211.144531 87.679688 210.941406 88.085938 C 206.621094 96.929688 201.796875 105.464844 195.648438 113.210938 C 186.96875 124.128906 175.671875 130.519531 162.058594 133.105469 C 154.175781 134.609375 146.199219 134.960938 138.222656 135.136719 C 134.28125 135.21875 130.324219 135.085938 126.371094 135.113281 C 119.476562 135.164062 112.59375 135.21875 105.703125 135.367188 C 102.855469 135.4375 100.027344 135.734375 97.183594 135.964844 C 96.652344 136.003906 96.125 136.207031 95.488281 136.359375 C 95.40625 137.019531 95.285156 137.644531 95.285156 138.265625 C 95.246094 141.300781 95.230469 144.335938 95.230469 147.355469 C 95.230469 155.902344 94.972656 164.433594 94.121094 172.941406 C 93.089844 183.195312 91.234375 193.296875 87.550781 202.980469 C 86.710938 205.203125 85.75 207.410156 84.707031 209.550781 C 78.910156 221.457031 69.699219 229.554688 57.1875 233.847656 C 50.496094 236.152344 43.640625 237.832031 36.558594 238.425781 C 34.554688 238.589844 32.5625 239.035156 30.558594 239.238281 C 29.203125 239.375 27.820312 239.402344 26.453125 239.335938 C 26.128906 239.320312 25.640625 238.832031 25.546875 238.46875 C 25.4375 238.101562 25.585938 237.492188 25.859375 237.25 C 26.371094 236.761719 27.050781 236.410156 27.6875 236.042969 C 34.511719 232.0625 40.308594 226.902344 45.210938 220.722656 C 49.710938 215.078125 52.390625 208.589844 53.933594 201.601562 C 55.355469 195.140625 56.304688 188.597656 56.765625 181.988281 C 57.1875 176.042969 57.390625 170.070312 57.714844 164.109375 C 57.753906 163.378906 57.6875 162.523438 58.039062 161.96875 C 58.90625 160.640625 58.90625 159.191406 58.972656 157.730469 C 59.121094 154.425781 59.246094 151.121094 59.367188 147.816406 C 59.421875 147.207031 59.339844 146.582031 59.296875 145.703125 Z M 59.296875 145.703125" stroke-linecap="round" />
</g>
<g transform="matrix(5.14 0 0 5.14 720.27 154.67)" clip-path="url(#CLIPPATH_4)"  >
<clipPath id="CLIPPATH_4" >
	<path transform="matrix(1 0 0 1 -0.22 -0.02) translate(-168.91, -55)" id="3769" d="M 114 27 L 223.820312 27 L 223.820312 83 L 114 83 Z M 114 27" stroke-linecap="round" />
</clipPath>
<path style="stroke: none; stroke-width: 1; stroke-dasharray: none; stroke-linecap: butt; stroke-dashoffset: 0; stroke-linejoin: miter; stroke-miterlimit: 4; fill: rgb(0,191,99); fill-rule: nonzero; opacity: 1;" vector-effect="non-scaling-stroke"  transform=" translate(-169.13, -55.02)" d="M 175.480469 72.523438 C 171.582031 72.578125 167.207031 72.050781 162.832031 71.535156 C 158.726562 71.046875 154.625 70.585938 150.503906 70.382812 C 143.476562 70.042969 136.597656 70.925781 129.960938 73.417969 C 125.433594 75.109375 121.359375 77.519531 117.933594 80.960938 C 117.605469 81.285156 117.28125 81.613281 116.917969 81.882812 C 116.320312 82.34375 115.644531 82.355469 115.128906 81.964844 C 114.613281 81.585938 114.316406 80.800781 114.652344 80.242188 C 116.523438 77.15625 117.121094 73.554688 118.648438 70.316406 C 123.105469 60.835938 129.226562 52.722656 137.894531 46.707031 C 143.949219 42.496094 150.722656 40.042969 157.96875 38.90625 C 163.046875 38.109375 168.167969 37.726562 173.328125 37.742188 C 178.191406 37.753906 183.050781 37.742188 187.929688 37.699219 C 192.519531 37.675781 197.097656 37.402344 201.648438 36.738281 C 207.867188 35.832031 213.488281 33.582031 218.445312 29.710938 C 219.09375 29.195312 219.757812 28.707031 220.449219 28.246094 C 221.179688 27.746094 222.007812 27.609375 222.792969 28.058594 C 223.726562 28.585938 223.820312 29.507812 223.699219 30.46875 C 223.644531 30.835938 223.5625 31.1875 223.441406 31.539062 C 220.230469 41.601562 215.75 50.988281 208.652344 58.9375 C 202.734375 65.589844 195.433594 69.894531 186.667969 71.683594 C 183.148438 72.402344 179.585938 72.5625 175.480469 72.523438 Z M 175.480469 72.523438" stroke-linecap="round" />
</g>
</svg>